<svg xmlns="http://www.w3.org/2000/svg" xmlns:xlink="http://www.w3.org/1999/xlink" width="784" zoomAndPan="magnify" viewBox="0 0 588 449.999984" height="600" preserveAspectRatio="xMidYMid meet" version="1.0"><path fill="#8809e8" d="M 563.070312 9.914062 L 565.199219 10.980469 L 566.265625 22.703125 L 568.398438 44.015625 L 568.398438 51.476562 L 563.070312 65.328125 L 558.808594 73.855469 L 550.285156 90.90625 L 541.757812 107.953125 L 538.5625 114.347656 L 543.890625 111.152344 L 552.414062 103.691406 L 556.675781 98.363281 L 559.871094 98.363281 L 562.003906 93.035156 L 568.398438 87.707031 L 575.855469 75.984375 L 576.921875 75.984375 L 575.855469 85.574219 L 570.527344 102.625 L 564.136719 114.347656 L 552.414062 133.53125 L 548.152344 140.992188 L 537.496094 144.1875 L 520.449219 152.714844 L 515.121094 155.910156 L 517.253906 160.171875 L 523.644531 172.960938 L 531.105469 175.09375 L 536.433594 185.75 L 542.824219 210.257812 L 543.890625 224.113281 L 542.824219 244.359375 L 538.5625 260.34375 L 534.300781 273.132812 L 525.777344 289.117188 L 516.1875 301.90625 L 503.402344 314.695312 L 488.484375 324.285156 L 479.960938 329.613281 L 459.714844 337.074219 L 444.796875 339.207031 L 434.144531 340.269531 L 424.554688 340.269531 L 397.917969 336.007812 L 375.542969 326.417969 L 364.886719 318.957031 L 358.492188 314.695312 L 358.492188 312.5625 L 356.363281 312.5625 L 355.296875 305.105469 L 361.691406 286.988281 L 363.820312 286.988281 L 364.886719 281.660156 L 372.34375 269.9375 L 377.671875 271.003906 L 392.589844 278.460938 L 403.246094 280.59375 L 419.226562 281.660156 L 426.683594 281.660156 L 426.683594 279.527344 L 407.507812 277.394531 L 392.589844 269.9375 L 386.195312 264.609375 L 386.195312 262.476562 L 383 262.476562 L 381.933594 260.34375 L 376.605469 261.410156 L 372.34375 262.476562 L 370.214844 266.738281 L 353.164062 279.527344 L 343.574219 286.988281 L 340.378906 301.90625 L 338.25 321.089844 L 336.117188 318.957031 L 332.921875 304.039062 L 328.660156 290.183594 L 328.660156 284.855469 L 337.183594 277.394531 L 351.035156 266.738281 L 354.230469 263.542969 L 356.363281 263.542969 L 358.492188 259.28125 L 371.277344 247.558594 L 379.804688 239.03125 L 381.933594 239.03125 L 381.933594 236.902344 L 388.328125 231.574219 L 393.65625 226.246094 L 405.375 213.457031 L 411.769531 205.996094 L 413.898438 205.996094 L 414.964844 202.800781 L 417.09375 202.800781 L 419.226562 198.535156 L 423.488281 196.40625 L 423.488281 194.273438 L 425.621094 194.273438 L 427.75 190.011719 L 441.601562 175.09375 L 449.0625 166.566406 L 460.78125 153.777344 L 471.4375 142.054688 L 478.894531 133.53125 L 483.15625 128.203125 L 485.289062 128.203125 L 487.417969 123.941406 L 502.335938 107.953125 L 509.792969 99.429688 L 521.515625 86.640625 L 528.972656 77.050781 L 536.433594 66.394531 L 538.5625 66.394531 L 539.628906 62.132812 L 546.019531 52.539062 L 553.480469 37.621094 L 559.871094 20.570312 Z M 470.371094 179.355469 L 466.109375 182.550781 L 466.109375 184.683594 L 461.847656 186.816406 L 457.585938 191.078125 L 458.648438 196.40625 L 465.042969 204.929688 L 467.175781 204.929688 L 468.238281 212.390625 L 470.371094 221.980469 L 470.371094 237.964844 L 466.109375 251.820312 L 456.519531 264.609375 L 446.929688 272.066406 L 446.929688 274.199219 L 452.257812 273.132812 L 461.847656 266.738281 L 470.371094 258.214844 L 478.894531 244.359375 L 483.15625 229.441406 L 484.222656 214.523438 L 482.089844 200.667969 L 477.828125 185.75 L 474.632812 179.355469 Z M 442.667969 204.929688 L 433.078125 212.390625 L 433.078125 214.523438 L 428.816406 216.652344 L 417.09375 226.246094 L 406.441406 235.835938 L 395.785156 244.359375 L 396.851562 249.6875 L 406.441406 255.015625 L 416.03125 258.214844 L 428.816406 257.148438 L 440.535156 250.753906 L 447.996094 242.230469 L 451.191406 233.703125 L 451.191406 217.71875 L 447.996094 209.195312 L 445.863281 204.929688 Z M 442.667969 204.929688 " fill-opacity="1" fill-rule="nonzero"/><path fill="#22f940" d="M 28.1875 7.78125 L 30.320312 8.847656 L 33.515625 21.636719 L 40.972656 40.816406 L 51.628906 61.066406 L 53.757812 63.195312 L 53.757812 66.394531 L 56.957031 67.460938 L 65.480469 79.183594 L 69.742188 84.511719 L 69.742188 86.640625 L 71.871094 86.640625 L 80.398438 97.296875 L 86.789062 104.757812 L 91.050781 107.953125 L 91.050781 111.152344 L 95.3125 113.285156 L 107.035156 126.070312 L 114.492188 134.597656 L 128.34375 149.515625 L 128.34375 151.648438 L 130.476562 151.648438 L 137.933594 160.171875 L 148.589844 171.894531 L 158.179688 183.617188 L 165.636719 191.078125 L 165.636719 193.207031 L 167.769531 193.207031 L 167.769531 195.339844 L 172.03125 197.472656 L 184.816406 211.324219 L 192.273438 218.785156 L 199.734375 227.308594 L 207.191406 233.703125 L 212.519531 239.03125 L 222.109375 248.625 L 227.4375 252.886719 L 232.765625 258.214844 L 245.550781 269.9375 L 254.074219 276.332031 L 263.664062 283.789062 L 264.730469 285.921875 L 262.597656 296.578125 L 257.269531 314.695312 L 256.203125 320.023438 L 255.140625 320.023438 L 251.941406 295.511719 L 248.746094 286.988281 L 231.699219 273.132812 L 218.914062 263.542969 L 214.648438 260.34375 L 210.386719 261.410156 L 198.667969 271.003906 L 185.882812 277.394531 L 166.703125 279.527344 L 166.703125 281.660156 L 191.210938 280.59375 L 203.996094 277.394531 L 217.847656 269.9375 L 222.109375 272.066406 L 228.5 284.855469 L 228.5 286.988281 L 230.632812 286.988281 L 237.027344 302.972656 L 237.027344 311.496094 L 228.5 318.957031 L 226.371094 318.957031 L 226.371094 321.089844 L 208.257812 330.679688 L 191.210938 337.074219 L 167.769531 340.269531 L 156.046875 340.269531 L 136.867188 338.140625 L 123.015625 333.875 L 115.558594 330.679688 L 100.640625 322.15625 L 87.855469 312.5625 L 81.460938 307.234375 L 81.460938 305.105469 L 79.332031 305.105469 L 74.003906 298.710938 L 74.003906 296.578125 L 71.871094 296.578125 L 64.414062 284.855469 L 56.957031 268.871094 L 50.5625 246.492188 L 49.496094 237.964844 L 49.496094 214.523438 L 52.695312 198.535156 L 56.957031 183.617188 L 62.285156 174.027344 L 68.675781 171.894531 L 75.070312 161.238281 L 77.199219 159.105469 L 77.199219 154.84375 L 66.546875 148.449219 L 49.496094 142.054688 L 43.105469 139.925781 L 36.710938 127.136719 L 30.320312 117.546875 L 21.792969 100.496094 L 18.597656 93.035156 L 15.402344 75.984375 L 18.597656 79.183594 L 27.121094 89.839844 L 32.449219 96.234375 L 38.84375 101.5625 L 44.167969 106.890625 L 51.628906 113.285156 L 53.757812 113.285156 L 51.628906 107.953125 L 48.433594 100.496094 L 48.433594 97.296875 L 46.300781 97.296875 L 37.777344 80.246094 L 31.382812 66.394531 L 24.992188 53.605469 L 23.925781 49.34375 L 26.054688 28.03125 L 27.121094 13.109375 Z M 118.753906 178.289062 L 113.425781 186.816406 L 110.230469 201.734375 L 109.164062 210.257812 L 109.164062 219.851562 L 111.296875 235.835938 L 115.558594 247.558594 L 124.082031 259.28125 L 134.738281 269.9375 L 142.195312 274.199219 L 147.523438 274.199219 L 146.457031 272.066406 L 144.328125 272.066406 L 144.328125 269.9375 L 140.066406 268.871094 L 139 265.675781 L 133.671875 260.34375 L 127.277344 251.820312 L 123.015625 240.097656 L 121.953125 234.769531 L 121.953125 219.851562 L 126.214844 205.996094 L 133.671875 196.40625 L 135.804688 194.273438 L 134.738281 190.011719 L 127.277344 182.550781 L 120.886719 178.289062 Z M 146.457031 204.929688 L 142.195312 215.585938 L 141.128906 219.851562 L 141.128906 233.703125 L 145.394531 243.296875 L 150.71875 249.6875 L 160.308594 256.082031 L 167.769531 258.214844 L 177.359375 258.214844 L 186.945312 255.015625 L 196.535156 248.625 L 197.601562 245.425781 L 188.011719 236.902344 L 178.421875 229.441406 L 162.441406 214.523438 L 150.71875 204.929688 Z M 146.457031 204.929688 " fill-opacity="1" fill-rule="nonzero"/><path fill="#eeefee" d="M 292.433594 315.761719 L 299.890625 315.761719 L 304.152344 320.023438 L 313.742188 334.941406 L 312.675781 343.46875 L 306.285156 371.175781 L 306.285156 376.503906 L 311.609375 365.847656 L 314.808594 356.253906 L 316.9375 356.253906 L 315.871094 382.898438 L 313.742188 393.554688 L 310.546875 401.015625 L 307.347656 413.800781 L 303.085938 425.523438 L 297.757812 446.835938 L 295.628906 448.96875 L 289.234375 424.457031 L 281.777344 402.078125 L 277.515625 389.292969 L 276.449219 378.636719 L 276.449219 356.253906 L 278.582031 357.320312 L 282.84375 370.109375 L 286.039062 376.503906 L 286.039062 378.636719 L 288.167969 378.636719 L 283.90625 357.320312 L 279.644531 341.335938 L 279.644531 333.875 L 286.039062 324.285156 L 290.300781 316.824219 Z M 292.433594 315.761719 " fill-opacity="1" fill-rule="nonzero"/></svg>